# xmcd
#
# Track frame offsets: 
#        150
#        13304
#        26807
#        45030
#        68894
#        81786
#        103760
#        120322
#        138436
#        152905
#
# Disc length: 2286 seconds
#
# Revision: 0
# Processed by: cddbd v1.5.2PL0 Copyright (c) Steve Scherf et al.
# Submitted via: ExactAudioCopyFreeDBPlugin 1.0
#
DISCID=7b08ec0a
DTITLE=James Armstrong - Blues Been Good To Me
DYEAR=2017
DGENRE=Blues
TTITLE0=Blues Been Good To Me
TTITLE1=Second Time Around
TTITLE2=Addicted To Love
TTITLE3=Early Grave
TTITLE4=Old Man In The Morning (Young Man At Night)
TTITLE5=Change In The Weather
TTITLE6=How Sweet It Is To Be Loved By You
TTITLE7=Ain't Another Love Song
TTITLE8=Sleeping With A Stranger
TTITLE9=Shot Gun Wedding
EXTD=
EXTT0=
EXTT1=
EXTT2=
EXTT3=
EXTT4=
EXTT5=
EXTT6=
EXTT7=
EXTT8=
EXTT9=
PLAYORDER=
